<?xml version="1.0" encoding="UTF-8"?>
<svg id="Ebene_2" data-name="Ebene 2" xmlns="http://www.w3.org/2000/svg" viewBox="0 0 198.34 192.73">
  <defs>
    <style>
      .cls-1 {
        stroke: #fff;
      }

      .cls-1, .cls-2, .cls-3, .cls-4, .cls-5 {
        fill: none;
      }

      .cls-1, .cls-2, .cls-3, .cls-4, .cls-6 {
        stroke-width: 2.08px;
      }

      .cls-7, .cls-8, .cls-9, .cls-10, .cls-11, .cls-12, .cls-13 {
        stroke-width: 0px;
      }

      .cls-2 {
        stroke: #aad2dc;
      }

      .cls-2, .cls-3, .cls-4, .cls-6 {
        stroke-linecap: round;
        stroke-linejoin: round;
      }

      .cls-3 {
        stroke: #000;
      }

      .cls-8 {
        fill: #080717;
      }

      .cls-9 {
        fill: #fff;
      }

      .cls-4, .cls-6 {
        stroke: #f0af9b;
      }

      .cls-5 {
        stroke: #080717;
        stroke-width: 8.34px;
      }

      .cls-10, .cls-6 {
        fill: #ffd8c5;
      }

      .cls-11 {
        fill: #f0af9b;
      }

      .cls-12 {
        fill: #fcb227;
      }

      .cls-13 {
        fill: #85bac6;
      }
    </style>
  </defs>
  <g id="_Layer_" data-name="&amp;lt;Layer&amp;gt;">
    <g>
      <path class="cls-11" d="m121.06,135.01s5.1,14.63,8.65,18.62,18.84-7.76,18.84-7.76l27.05-22.83s11.75,13.52,9.53,17.96c-2.22,4.43-13.08,7.76-13.08,7.76,0,0-21.28,21.06-29.49,26.16-8.2,5.1-11.53,5.32-14.15,4.41-3.41-1.19-5.8-3.08-7.86-7.39-2.89-6.07-6.93-34.2-6.93-34.2l7.43-2.72Z"/>
      <path class="cls-8" d="m46.84,70.24c-4.79,5.62-12.38,24.8-7.73,35.21,5.76,12.92,13.43,9.83,25.81,10.88,12.38,1.05,16.47,3.07,17.15,11.16.68,8.09,7.7,2.48,17.07,4.81,9.37,2.33,48.83-12.53,40.93-42.9-3.24-12.45-28.91-5.86-36.94-7.68s-3.89-10.76-9.54-15.99c-5.65-5.23-31.15-13.82-46.74,4.5Z"/>
      <path class="cls-13" d="m124.03,139.29c-1.04-4.16-1.95-7.03-2.85-9.38-5.64-14.72-5.29-15.45-9.84-18.13-5.08-2.99-12.92.77-15.6,6.68-2.68,5.92,1.43,27.24,1.43,27.24,0,0,26.94-6.12,26.86-6.41Z"/>
      <path class="cls-7" d="m80.62,72.42c-2.67-4.76-7.78-7.85-13.12-9.19-10.72-2.69-21.41,5.28-24.86,14.92-1.53,4.28-1.62,8.87-4.17,12.82-4.59,7.11-12.59,11.11-19.7,15.33-6.17,3.67-12.36,7.94-15.76,14.19-5.49,10.1-3.25,26.87,4.95,34.95,14.43,14.24,38.33,10.01,52.5-2.77,6.75-6.09,11.56-14.25,14.9-22.54,2.31-5.74,4.93-11.45,6.5-17.41,1.57-5.97,2.68-12.08,2.87-18.24.22-6.89-.71-13.87-3.27-20.29-.24-.61-.53-1.2-.84-1.76Z"/>
      <path class="cls-13" d="m87.75,111.85s11.09-7.39,25.88,25.88c8.49,19.1-3.7,55-3.7,55h-62.39s10.19-24.07,40.21-80.88Z"/>
      <g>
        <path class="cls-8" d="m136.38,116.04h50.59v34.01c0,1.57-1.28,2.85-2.85,2.85h-44.9c-1.57,0-2.85-1.28-2.85-2.85v-34.01h0Z" transform="translate(-25.46 38.55) rotate(-12.61)"/>
        <path class="cls-12" d="m194.66,40.78c-6.29-28.11-34.18-45.8-62.29-39.51-28.11,6.29-45.8,34.18-39.51,62.29,4.21,18.83,18.13,32.94,35.3,38.34l4.38,19.59,50.9-11.39-4.38-19.59c13.23-12.21,19.81-30.9,15.6-49.73Z"/>
        <line class="cls-5" x1="133.04" y1="143.61" x2="192.43" y2="130.32"/>
        <line class="cls-5" x1="129.26" y1="126.68" x2="188.64" y2="113.39"/>
        <path class="cls-1" d="m148.3,116.16s-9.76-45.42-17.1-58.06c-2.62-4.51-15.31-15.82-19.4-7.66-4.08,8.17,25.01,26.67,33.94,9.19,5.36-10.49,2.99-40.22-6.64-35.73-5.74,2.68-4.03,37.77,8.68,39.3,16.97,2.04,21.82-14.8,21.31-19.91-.51-5.1-15.82,8.17-13.27,26.03,2.55,17.86,9.7,43.77,9.7,43.77"/>
      </g>
      <g>
        <path class="cls-10" d="m90.92,141.89s-7.32,16.81-2.44,18.95c11.14,4.88,50.03-25.49,50.03-25.49l16.92-7.75s2.85,3.83-2.92,7.36c-1.72,1.05,13.79,2.91,13.79,2.91,0,0,.58,4.25-5.36,5.24-5.94.98,4.58,2.12,4.58,2.12,0,0,.26,2.53-4,4.28-.21.09.91,2.17.5,3.11-1.05,2.43-4.34,2.59-6.96,2.77-.14,0,2.78,1.88,1.32,3.56-1.46,1.67-20.77.65-20.77.65,0,0-22.43,21.15-34.31,25.26-11.88,4.11-21.75,6.23-28.84.85-7.1-5.38-10.92-23.42-8.59-33.17,2.33-9.75,27.05-10.64,27.05-10.64Z"/>
        <path class="cls-4" d="m90.47,143.48s-9.97,21.29,4.3,18.02c14.27-3.28,43.94-26.69,43.94-26.69l28.06,3.02s.59,5.11-8.01,5.92"/>
        <path class="cls-4" d="m145.27,142.03l21.66,2.8s.07,5.15-7.94,5.13"/>
        <path class="cls-4" d="m145.01,146.63l17.46,4.23s-.31,3.74-4.45,3.88-6.72.04-6.72.04"/>
        <path class="cls-4" d="m144.95,151.92l11.37,5.08s1.07,4.01-3.62,3.54c-5.4-.54-19.74-1.93-19.74-1.93"/>
        <path class="cls-4" d="m141.91,134.82l12.7-7.67s5.69,3.61-3.55,8.69"/>
      </g>
      <path class="cls-10" d="m70.35,96.29c3.76,2.64,4.68,7.82,2.04,11.59-2.64,3.76-7.82,4.68-11.59,2.04-3.76-2.64-4.68-7.82-2.04-11.59,2.64-3.76,7.82-4.68,11.59-2.04Z"/>
      <path class="cls-10" d="m88.08,82.46l-21.42,6.74,12.63,25.5c4.27,1.37,8.48,1.31,12.13-.5,3.65-1.81,6.95,1.81,11.11,5.97l-14.45-37.71Z"/>
      <path class="cls-10" d="m80.06,97.73s16.93,3.02,13.29-13.54c-.79-3.57-5.57-7.73-12.1-11.72-.23-.14,2.78-2.56.17-3.46-8.2-2.82-20.09-4.06-28.36-1.61,0,0,18.23,18.69,12.12,29.22"/>
      <path class="cls-3" d="m54.58,67.64c8.87,5.74,14.75,15.85,15.36,26.4"/>
      <path class="cls-4" d="m61,103.6c1.81-1.58,4.87-1.13,6.81-.06"/>
      <path class="cls-9" d="m75.03,85.03l7.2-4.86s2.16,13.06-7.2,4.86Z"/>
      <path class="cls-7" d="m73.34,73.7c1.17.18,2.01,1.02,1.88,1.86-.13.84-1.19,1.37-2.36,1.19-1.17-.18-2.01-1.02-1.88-1.86.13-.84,1.19-1.37,2.36-1.19Z"/>
      <path class="cls-3" d="m68.23,76.58c-.46-1.04-.68-2.18-.65-3.31"/>
      <path class="cls-13" d="m60.77,152.29s4.55-24.8,9.19-33.04c5.55-9.87,12.4-10.63,17.68-10.63,5.89,0,10.75,7.22,10.05,13.67-.69,6.46-5.2,22.03-5.2,22.03,0,0-16.99-5.72-31.72,7.98Z"/>
      <path class="cls-2" d="m92.48,144.31s4.04-14.9,4.97-19.06"/>
      <path class="cls-2" d="m108.08,124.33s6.93,9.24,7.86,24.03"/>
      <g>
        <path class="cls-6" d="m187.24,150.53l7.97-3.28c1.69-.67,2.52-2.58,1.86-4.27h0c-.67-1.69-2.58-2.52-4.27-1.86l-7.97,3.28c-1.69.67-2.52,2.58-1.86,4.27h0c.67,1.69,2.58,2.52,4.27,1.86Z"/>
        <rect class="cls-6" x="178.64" y="137.25" width="18.42" height="6.59" rx="3.16" ry="3.16" transform="translate(414.11 202.54) rotate(158.52)"/>
        <path class="cls-6" d="m180.53,131.57h12.1c1.74,0,3.16,1.42,3.16,3.16v.27c0,1.74-1.42,3.16-3.16,3.16h-12.1c-1.74,0-3.16-1.42-3.16-3.16v-.27c0-1.74,1.42-3.16,3.16-3.16Z" transform="translate(409.59 192.03) rotate(158.52)"/>
        <path class="cls-6" d="m181.21,134.02l11.01-4.33c1.69-.67,2.52-2.58,1.86-4.27h0c-.67-1.69-7.55-7.15-9.24-6.49l1.28,6.08-7.32,2.88c-1.69.67-2.52,2.58-1.86,4.27h0c.67,1.69,2.58,2.52,4.27,1.86Z"/>
      </g>
    </g>
  </g>
</svg>