<?xml version="1.0" encoding="UTF-8"?>
<svg id="Ebene_2" data-name="Ebene 2" xmlns="http://www.w3.org/2000/svg" viewBox="0 0 276.37 208.55">
  <defs>
    <style>
      .cls-1 {
        stroke: #080717;
      }

      .cls-1, .cls-2, .cls-3, .cls-4, .cls-5, .cls-6, .cls-7, .cls-8, .cls-9, .cls-10 {
        fill: none;
      }

      .cls-1, .cls-2, .cls-3, .cls-4, .cls-5, .cls-6, .cls-7, .cls-8, .cls-9, .cls-11 {
        stroke-width: 2px;
      }

      .cls-12, .cls-13, .cls-14, .cls-15, .cls-16, .cls-17, .cls-18, .cls-19 {
        stroke-width: 0px;
      }

      .cls-20 {
        stroke-miterlimit: 10;
      }

      .cls-20, .cls-3, .cls-11 {
        stroke: #f0af9b;
      }

      .cls-20, .cls-16, .cls-11 {
        fill: #ffd8c5;
      }

      .cls-2, .cls-3, .cls-4, .cls-5, .cls-6, .cls-9, .cls-10, .cls-11 {
        stroke-linecap: round;
        stroke-linejoin: round;
      }

      .cls-2, .cls-10 {
        stroke: #85bac6;
      }

      .cls-13 {
        fill: #080717;
      }

      .cls-4 {
        stroke: #aad2dc;
      }

      .cls-14 {
        fill: #fbc2a9;
      }

      .cls-5 {
        stroke-dasharray: 0 0 1.89 3.78;
      }

      .cls-5, .cls-9 {
        stroke: #000;
      }

      .cls-15 {
        fill: #fff;
      }

      .cls-6, .cls-7, .cls-8 {
        stroke: #fff;
      }

      .cls-7 {
        stroke-linejoin: bevel;
      }

      .cls-17 {
        fill: #f0af9b;
      }

      .cls-18 {
        fill: #fcb227;
      }

      .cls-19 {
        fill: #85bac6;
      }

      .cls-10 {
        stroke-width: 4px;
      }
    </style>
  </defs>
  <g id="_Layer_" data-name="&amp;lt;Layer&amp;gt;">
    <g>
      <line class="cls-4" x1="1" y1="183.93" x2="135.57" y2="183.93"/>
      <path class="cls-14" d="m32.29,157.23c1.44-.03,79.03,10.54,79.03,10.54l31.7-29.23s14.12-1.52,20.91,6.25c6.8,7.77-23.13,38.09-23.13,38.09H28.58s-.83-25.54,3.72-25.65Z"/>
      <path class="cls-16" d="m267.86,130.42c-2.2-3.22-7.21-7.16-18.59-7.6-.23,0-.38-.01-.42-.02-.23-.05-.46.06-.56.26l-14.63,28.93s-.03.09-.04.13c-22.05-.97-54.85-1.48-69.17,2.94-14.21,4.39-25.14,16.23-30.77,33.34l-.15.45c-1,2.97-2.44,10.6-2.91,15.41-.17,1.77-.13,2.9.6,3.47.26.2.58.3.97.3.37,0,.79-.09,1.28-.27,1.04-.37,2.65-1.46,4.09-3.38,1.75-2.33,2.8-4.48,3.44-6.25.2,1.91.72,3.5,1.83,4.17,1.01.61,1.94.86,2.78.86,1.65,0,2.92-.99,3.68-2.22.01-.02.01-.04.02-.05.38.3.83.54,1.34.68.4.12.79.17,1.15.17,1.86,0,3.23-1.31,3.85-2.26.27.33.58.62.98.81.07.03.15.05.22.05.01,0,.02,0,.04-.01.04.05.1.1.16.13.83.4,1.65.59,2.46.59,1.13,0,2.23-.38,3.25-1.15,2.38-1.78,3.86-5.38,3.56-7.29-.47-2.9-3.22-3.43-3.31-3.44-.11-.02-.22,0-.31.06.42-2.53,1.49-4.52,2.94-4.95,1.45-.43,28.73-.46,72.98-.09.06,0,.11,0,.17,0,7.99,0,15.2-4.71,18.41-12.04l11.28-25.76c2.29-6.62,2.08-12-.64-15.98Z"/>
      <path class="cls-13" d="m125.26,155.32c-2.16-3.08-.62-16.63.31-20.63l-39.72-7.39s2.36,4.47-11.69,35.68l37.47,5.54"/>
      <path class="cls-13" d="m96.24,36.34c-2.89-6.46,4.07-21.95,17.42-14.87,13.35,7.07,11.12.36,18.67,4.31,7.56,3.95,10.06,8.6,7.64,12.93-2.42,4.32-4.15,12.97.5,15.37,4.65,2.39,26.57,15.18,7.39,24.47-19.18,9.29-74.29-7.65-58.97-25.52,0,0,12.57-5.03,7.35-16.68Z"/>
      <path class="cls-18" d="m131.94,81.22c2.97-.56,11.09-2.31,20.78,6.62,9.7,8.93,20.48,22.17,21.25,26.02.77,3.85-.81,16.93-9.7,18.32-9.85,1.54-17.4-8.62-21.55-11.24-4.16-2.62-23.4-20.17-23.4-20.17l12.62-19.55Z"/>
      <path class="cls-18" d="m151.8,95.54c0-3.39-6.31-6.77-8.16-9.24-1.85-2.46-22.02-12.63-22.02-12.63,0,0-11.39.31-14.47.31s-21.25,7.08-24.63,9.85c0,0-8.01,12.63-7.7,16.63.31,4,7.08,31.41,7.08,31.41l43.73,3.39,2.56-5.59c8.19-1.01,14.53-7.97,14.53-16.43,0-1.98-.37-3.87-1-5.63,4.56-4.37,10.08-10.08,10.08-12.07Z"/>
      <path class="cls-18" d="m96.99,81.69c-4.38-5.7-17.09-5.85-23.25,3.85-6.16,9.7-13.7,48.04-9.55,54.81,4.16,6.77,16.47,9.24,21.86,2.16,5.39-7.08,8.47-24.94,10.01-30.48,1.54-5.54,9.55-19.09.92-30.33Z"/>
      <g>
        <rect class="cls-10" x="50.95" y="153.51" width="18.22" height="22.87" rx="4.89" ry="4.89" transform="translate(120.12 329.89) rotate(180)"/>
        <path class="cls-19" d="m28.58,146.46h29.21c1.41,0,2.55,1.14,2.55,2.55v33.95H26.03v-33.95c0-1.41,1.14-2.55,2.55-2.55Z" transform="translate(86.37 329.42) rotate(180)"/>
      </g>
      <path class="cls-19" d="m268.03,146.24l7.7-24.63c2.79-8.92-3.84-18-13.19-18.06l-72.74-.47c-7.21-.05-14.17,2.65-19.47,7.55l-27.75,28.13s10.86-2,21.36,6.16c.37.29-7.65,14.63-7.65,14.63,0,0,9.2-11.08,77.81-7.32,1.05.06,4.99-8.2,4.99-8.2,0,0,23.94-7.09,28.93,2.22Z"/>
      <line class="cls-6" x1="176.14" y1="122.52" x2="163.28" y2="144.03"/>
      <line class="cls-6" x1="248.74" y1="123.3" x2="234.11" y2="152.23"/>
      <path class="cls-13" d="m228.91,78.83s1.99-9.79,2.11-14.03c.13-4.24-3.22-7.01-8.45-10.21-5.23-3.21-4.55-2.48-2.95-3.24,1.6-.77-3.01-2.97-9.52-1.92-6.51,1.05-17.4,5.08-12.97,16.64,4.44,11.56,28.51,23.12,31.77,12.77Z"/>
      <path class="cls-16" d="m235.64,104.44s-4.43-1.17-6.58-5.37c-2.16-4.2-3.32-9.03-1.82-11.81,1.5-2.78,5.26-11.19,1.5-12.86-2.5-1.11-3.49,3.01-4.74,4.71-1.25,1.7-1.2.29-1.51-2.06-.31-2.35-2.13-6.76-4.17-7.8-2.04-1.04-.35-8.34,1.38-9.64,1.73-1.31-6.32.24-11.64-.14-5.32-.38-7.42-1.15-10.64,2.94-3.23,4.09-4.08,9.02-3.86,14.19.22,5.18,3.72,17.09,3.97,19.71.25,2.62,1.1,4.19,5.47,4.98.92.17,2.39,1.43,2.89,4.73,1.34,8.96,4.25,11.01,15.02,9.86,6.28-.67,10.53-4.26,14.74-11.45Z"/>
      <path class="cls-17" d="m223.39,90.36s-4.33,6.4-6.99,8.06c-2.66,1.66-11.81,1.82-14.97,1.94-3.16.12,1-.62,7.52,3.17,6.52,3.79,14.64,10.51,15.39,7.27.75-3.24,1.99-9.22,1.41-11.63-.58-2.41-2.37-8.8-2.37-8.8Z"/>
      <path class="cls-3" d="m201.08,72.18l-3.37,9.33s1.78,1.95,4.07,2.13"/>
      <path class="cls-9" d="m205.88,69.22c2.18-.79,3.75-1.96,6.79.23"/>
      <path class="cls-9" d="m198.68,70.36c-1.12-.12-2.05-.97-3.17-1.08-.93-.1-2.3.67-2.66,1.54"/>
      <path class="cls-12" d="m206.44,75c0,.9.52,1.62,1.17,1.62s1.17-.73,1.17-1.62-.52-1.62-1.17-1.62-1.17.73-1.17,1.62Z"/>
      <path class="cls-12" d="m194.08,75c0,.9.52,1.62,1.17,1.62s1.17-.73,1.17-1.62-.52-1.62-1.17-1.62-1.17.73-1.17,1.62Z"/>
      <path class="cls-15" d="m200.22,88.1s5.88-.5,6.72,0c.84.5-.17,4.2-1.85,4.37-1.68.17-4.2-.34-4.87-4.37Z"/>
      <path class="cls-3" d="m255.39,153.89s-8.24-.64-19.94-1.19c-21.95-1.02-56.1-1.7-70.85,2.85-22.61,6.98-29.42,29.99-30.59,33.48-1.01,2.98-2.43,10.59-2.88,15.3-.23,2.41-.09,3.81,2.18,2.99.8-.29,2.37-1.21,3.86-3.21,4.5-5.99,4.32-10.81,4.32-10.81"/>
      <path class="cls-3" d="m142.44,187.45s-2.66,12.44.67,14.44c3.33,2,5.21-.28,5.78-1.19"/>
      <path class="cls-3" d="m148.4,188.14s-2.72,11.5,2.41,12.97c2.91.83,4.57-2.08,4.57-2.08"/>
      <path class="cls-3" d="m162.37,194.96c-1-4.74.33-10.31,3.16-11.14"/>
      <path class="cls-3" d="m156.2,188.9s-2.9,9.22.68,10.97"/>
      <path class="cls-3" d="m163.45,189.81s2,.33,2.41,2.91c.42,2.58-3.16,9.89-8.56,7.32"/>
      <path class="cls-16" d="m123.74,56.62c1.38-9.48-15.11-1.96-15.11-1.96,0,0-2.22,13.27-2.22,20.75.93.83,10,3.82,12.68,3.33-.26-.08,3.74-15.89,4.65-22.11Z"/>
      <path class="cls-16" d="m127.13,33.23s4.51,11.18,3.28,17.77c-1.22,6.59-2.42,15.05-9.41,15.2-5.59.11-16.98-9.32-17.86-13.83-.81-4.2,10.9-5.38,6.14-16.81-1.72-4.13,13.61,1.69,17.84-2.33Z"/>
      <path class="cls-13" d="m106.61,58.12c2.01,1.56,5.11,4.93,8.34,6.1.58,1.29-6.48,2.12-7.92.63-.14-3.97-.87-6.96-.87-6.96,0,0,.03-.06.09-.15.1.14.22.26.37.38Z"/>
      <path class="cls-12" d="m118.79,45c-.32.91-1.12,1.56-1.79,1.45-.67-.11-.96-.93-.64-1.84.32-.91,1.12-1.56,1.79-1.45.67.11.96.93.64,1.84Z"/>
      <path class="cls-9" d="m124.5,54.87s-5.21-.09-6,.38c-.79.47,1.15,3.73,2.64,3.78s2.42-.75,3.36-4.16Z"/>
      <path class="cls-9" d="m123.37,41.99s.66,2.93,2.24,4.97c1.58,2.04-2.43,3.02-2.43,3.02"/>
      <path class="cls-16" d="m104.98,49.24c-.68,1.85-1.22,3.63-1.64,5.29-1.7-.06-3.14-1.01-3.58-2.59-.61-2.18.89-4.71,3.36-5.64,1.09-.41,2.17-.42,3.1-.15-.43.99-.85,2.02-1.25,3.09Z"/>
      <path class="cls-9" d="m120.18,41.43c-.79-.43-2.03-.53-3.37-.19-1.09.28-2.04.8-2.7,1.41"/>
      <path class="cls-12" d="m129.06,44.7c-.32.91-1.12,1.56-1.79,1.45-.67-.11-.96-.93-.64-1.84.32-.91,1.12-1.56,1.79-1.45.67.11.96.93.64,1.84Z"/>
      <path class="cls-9" d="m130.45,41.12c-.79-.43-2.03-.53-3.37-.19-1.09.28-2.04.8-2.7,1.41"/>
      <path class="cls-2" d="m99.95,54.94c-1.12.98-1.91,2.39-2.05,3.91-.26,2.72,1.64,4.76,4.25,4.57,2.6-.2,4.92-2.56,5.18-5.28s-1.64-4.76-4.25-4.57"/>
      <g>
        <path class="cls-20" d="m174.22,98.65c-1.44.1-3.21.88-3.81,2.15-.23.49-.39,1.19-.5,2-.79-.51-1.97-.65-3.1-.35-.9.24-2.54.97-3.37,3.17-1.27,3.39-.09,11.74,3.07,13.51,1.24.69,3.67.29,4.58-.52.8-.71,1.03-1.77,1.08-2.53,1.42,1.49,3.13,1.31,3.78,1.17,2.92-.64,3.58-2.86,3.71-4.17.24.25.5.45.78.6,1.07.57,2.17.28,3.01-.04,1.69-.64,2.43-2.24,2.62-2.74.54.22,1.12.15,1.78,0,.13-.03.27-.06.41-.09,1.79-.35,1.67-2.79,1.66-2.9,0-.01,0-.03,0-.04-.03-.16-.54-3.18-1.3-5.52-.2-.61-.42-1.17-.65-1.63-.45-.89-1.13-1.48-1.98-1.72-1.1-.31-2.12.07-2.5.31-.04.03-.08.07-.12.1-.02-.03-.03-.06-.05-.09-.7-.8-2.43-1.37-3.84-1.27-1.13.08-2,.54-2.53,1.34-.02.03-.04.08-.06.13-.57-.64-1.53-.95-2.69-.87Z"/>
        <path class="cls-11" d="m171.74,115.19s.27,2.05-.92,3.11c-.76.67-3,1.09-4.11.47-2.84-1.59-4.13-9.69-2.89-13s4.74-3.58,6.07-2.47"/>
        <path class="cls-11" d="m179.27,112.15s.47,3.84-3.41,4.69c-1.81.4-3.9-.37-4.87-3.93-.97-3.56-1.17-9.9-.22-11.94.86-1.83,4.82-2.74,5.97-.98"/>
        <path class="cls-11" d="m185.74,110.62s-.62,1.95-2.43,2.63c-1.5.57-3.82,1.05-5.07-4.25-.76-3.25-1.57-8.41-.93-9.38,1.29-1.97,4.78-1.08,5.71-.02"/>
        <path class="cls-11" d="m189.52,107.93s.13,2.18-1.33,2.47c-1.46.28-2.57,1.03-3.94-3.17-1.37-4.2-1.18-7.17-.53-7.57s2.8-.91,3.89,1.25c1.09,2.16,1.91,7.03,1.91,7.03Z"/>
      </g>
      <path class="cls-6" d="m92.78,99.46s-.89,24.83-2.22,32.81"/>
      <path class="cls-6" d="m137.49,95.47l-.37,9.75s6.04,10.59,4.7,15.72"/>
      <path class="cls-16" d="m73.2,163.3l-3.49-20.21s3.33-7.34,8.44-7.02c5.11.31,7.91,4.9,7.91,4.9l2.28,24.45-15.14-2.12Z"/>
      <g>
        <path class="cls-16" d="m52.65,160.88c-1.42-2.56-4.11-3.02-9-3.86-1.83-.31-4.21-.35-6.5-.28,2.69-.65,6.47-1.06,8.28-1.16,2.04-.11,4.35-1.98,4.38-4.33.01-.85-.34-1.63-1-2.25-1.38-1.28-3.97-1.83-7.52-1.6-5.41.36-12.47,2.44-16.78,4.94-4.46,2.58-7.18,12.65-6.94,20.43.26,8.1,9.21,10.46,9.3,10.48.05.01.09.02.14.02.25,0,.47-.16.54-.4l.84-3.04c2.39-.97,7.94-1.34,10.87-1.17,3.51.2,5.37-1.22,5.67-2.72.41-2.02-1.5-3.27-3.27-4.07,2.2-.14,4.29-.35,5.17-.66,1.24-.43,2.85-1.5,3.34-3.06.21-.68.27-1.72-.51-2.95,1.22-.36,2.38-1.24,2.92-2.28.37-.72.4-1.44.07-2.03Z"/>
        <g>
          <path class="cls-3" d="m41.33,147.95c5.44-.37,7.95,1.23,7.92,3.29-.03,2.06-2.09,3.7-3.85,3.79-1.76.09-9.7.85-11.39,2.37"/>
          <path class="cls-3" d="m29.36,157.92s9.26-1.22,14.19-.36c4.93.85,7.34,1.3,8.61,3.59.75,1.35-1.27,3.4-3.24,3.65"/>
          <path class="cls-3" d="m28.74,163.63s18.19-1.24,20.27,1.57c2.07,2.81-.64,4.87-2.37,5.48-1.73.61-9.04.83-9.75.85"/>
          <path class="cls-3" d="m28.99,172.14s8.49-1.4,11.79-.06c3.15,1.28,3.86,2.52,3.61,3.74-.27,1.35-2.09,2.45-5.09,2.28-3-.17-8.97.22-11.37,1.32"/>
        </g>
      </g>
      <path class="cls-18" d="m122.59,70.71l-.35,2.78-1.39,11.23-16.92-2.4,1.39-12.68.31-2.79c5.65,1.38,11.3,2.68,16.96,3.86Z"/>
    </g>
    <g>
      <path class="cls-13" d="m176.24,26.68h11.64v5.63c0,1.57-1.28,2.85-2.85,2.85h-5.94c-1.57,0-2.85-1.28-2.85-2.85v-5.63h0Z" transform="translate(10.61 -37.68) rotate(12.17)"/>
      <path class="cls-18" d="m197.98,14.53c1.4-6.48-2.72-12.86-9.2-14.26-6.48-1.4-12.86,2.72-14.26,9.2-.94,4.34.61,8.63,3.68,11.41l-.97,4.51,11.73,2.53.97-4.51c3.94-1.27,7.12-4.54,8.05-8.88Z"/>
      <line class="cls-1" x1="175.19" y1="30.07" x2="188.88" y2="33.02"/>
      <line class="cls-1" x1="176.04" y1="26.17" x2="189.72" y2="29.12"/>
      <g>
        <line class="cls-7" x1="181.14" y1="26.24" x2="184.3" y2="11.58"/>
        <line class="cls-7" x1="185.05" y1="27.08" x2="188.21" y2="12.42"/>
        <line class="cls-8" x1="181.36" y1="10.95" x2="191.14" y2="13.06"/>
      </g>
    </g>
    <g>
      <path class="cls-9" d="m201.47,24.22c.26.21.52.42.78.63"/>
      <path class="cls-5" d="m205.04,27.4c3.56,3.57,6.41,7.81,8.37,12.47"/>
      <path class="cls-9" d="m214.1,41.62c.11.31.22.63.33.94"/>
    </g>
    <g>
      <path class="cls-9" d="m145.64,24.32c.21-.26.42-.52.63-.78"/>
      <path class="cls-5" d="m148.82,20.75c3.58-3.55,7.83-6.39,12.5-8.34"/>
      <path class="cls-9" d="m163.07,11.73c.31-.11.63-.22.94-.33"/>
    </g>
    <path class="cls-9" d="m197.45,48.51c-.6-2.03-1.2-4.06-1.8-6.09"/>
    <path class="cls-9" d="m193.19,51.8c-2.61-2.62-4.79-5.66-6.43-8.98"/>
    <path class="cls-9" d="m184.58,53.47c1.59.77,3.19,1.54,4.78,2.32"/>
  </g>
</svg>